<svg xmlns="http://www.w3.org/2000/svg" xmlns:xlink="http://www.w3.org/1999/xlink" width="1255" height="702" xmlns:v="https://vecta.io/nano"><path d="M908.237030029297 428.859558105469l2.54013062-.01730347 2.76141357-.00338745 2.92819214-.01504516 9.58792114-.02694703 6.665802-.01727294 13.97628784-.01983643 17.90254021-.05797195 13.7689724-.02536393 6.59999847-.02418518 9.2343483-.00868988 2.74914551-.02792358c6.55212164.04324033 10.71235632 1.32011924 15.73571777 5.75936889 5.82905721 6.61676765 6.46177308 11.85247203 6.4529419 20.44219971l.0090034 2.72799468.01168751 9.06906343.01504517 6.49476623.02401066 17.6594286.01150417 11.03177166.02720189 34.51256204.0510006 39.84563732.03304052 30.79526662.02481961 18.39443136.009861 17.30547142.01345825 6.34663009-.003582 8.67464257.02441334 2.52687382c-.07000871 8.32148114-2.45188039 14.85823482-8.39190602 20.79826045-6.34479251 3.75508129-11.68550292 4.15159702-18.94018555 4.16113282l-2.73625183.01504516-8.96028137.02694702-6.24067688.01727295-13.09111023.01983643-16.7313261.05797195-12.8969183.02536393-6.16552353.02418518-8.65056801.00868988-2.54644775.02792358c-6.89362796-.0481387-12.91262774-1.50751927-18.85321045-5.0718689-5.56384821-5.88178239-6.77815306-11.95916006-6.7021637-19.83850097l-.02104705-2.81259775.00226349-9.2805419-.02610779-6.6738739-.01067853-18.09258843-.00947207-15.11222314.0061698-37.68821198-.02877017-32.69965124-.03081779-33.61648459-.01778752-18.85703325.0121994-17.72915077-.01114845-6.50144577.02167129-8.88419533-.03586584-2.58935022c.10587803-6.83343037 2.42868377-11.5929102 7.17747021-16.50075817 4.11457584-3.64791406 7.36967144-4.55439622 12.72361475-4.57633448z" fill="#3ae055"/><path d="M246.154739379883 428.859558105469l2.5614624-.01730347 2.80064392-.00338745 2.95730591-.01504516 9.70162964-.02694703 6.73735046-.01727294 14.13545227-.01983643 18.10776997-.05797195 13.92081547-.02536393 6.67535782-.02418518 9.34244346-.00868988 2.78224182-.02792358c6.17298555.04026778 10.56154997.95768044 15.20481873 5.35702514l1.73046875 2.08984375 1.76953125 2.09765625c3.07801287 3.9937853 2.56615462 7.88056576 2.56513977 12.72697449l.01114148 2.82394964.01868945 9.4263708.01991272 6.73519897.03620553 18.34137893.01751113 11.45283532.03874874 31.70839024.00578595 8.23045826.00146588 2.06631395.06611479 33.12961303.05427762 34.0125346.03646118 19.09697932.01723862 17.96774864.01955604 6.5946064-.00253296 9.00444221.03324014 2.6341607c-.07681043 7.254174-2.11906186 11.48596278-7.33348733 16.70038825-6.16887146 4.23353924-12.35370092 4.4831937-19.57592773 4.46215821l-2.77200318.01548767-9.02316284.01063537-6.30226135.01298523-13.19114685.00190735c-5.62321008-.00579523-11.24609084.01114384-16.86924649.03434468l-13.01001262.01249027-6.21824265.01581192c-2.90277336.01239224-5.80491019.00555608-8.70767402-.00600624l-2.57139588.02316284c-6.71127533-.05882712-11.90481204-1.52903213-17.69642639-5.0829773-5.66497222-5.82233256-6.83972246-11.96469022-6.75120544-19.85195922l-.0167709-2.81687391.01626736-9.29454577-.01637268-6.68360901.01371121-18.11697817.00386691-18.9658618.03395081-31.84146118.02050781-32.74316406.0056591-39.49497604.0009346-15.0737381.02695465-17.74390602.00104714-6.51364136.02376938-8.88629341-.01821226-2.60700381c.06320443-5.97408501 1.14238693-10.24613256 5.34339231-14.76051939l2.0625-1.73046875 2.0625-1.76953125c2.98138601-2.18194177 5.50833997-2.54389122 9.09223938-2.55841064z" fill="#ed1c25"/><path d="M685.63623046875 428.725341796875l2.92376709-.01548767 9.55718994-.01063538 6.65432739-.01298523 13.94577027-.00190734 17.85171318-.03434468 13.74335289-.01249027 6.5807724-.01581192 9.21185684.00600624 2.73348999-.02316284c6.19982522.05153695 11.25104398.85101628 16.08731079 5.07907104l1.38671875 1.75390625 1.42578125 1.74609375c2.26624616 3.26255252 3.51040025 5.84082568 3.52178097 9.84701157l.02141088 2.41589332-.00731844 2.63644814.01586873 2.81461549.0163731 9.35927367.02522277 6.70166016.03582645 18.22346019.01700139 11.38354207.03887653 31.53105545.0005684 2.0377648.00109111 4.08957548.00055397 2.05051998.00054712 2.05302932.06795077 32.9235093.05774815 33.81950692.03799766 18.98129058.01234436 17.85703277.02081871 6.54981232-.00821304 8.95052338.0399999 2.60940909c-.08520154 6.15045442-1.81342987 10.17818774-5.65473074 14.98147225-2.0625 1.83984375-2.0625 1.83984375-4 2.9375l-1.9375 1.15234375c-5.18804796 2.28942268-10.57065154 2.06396149-16.13208008 2.07128907l-2.74156189.01504516-8.95838928.02694702-6.24357605.01727295-13.08576965.01983643-16.73489857.05797195-12.8967905.02536392-6.16800309.02418519-8.64366722.00868988-2.55258178.02792358c-8.37206745-.0586702-14.92455732-2.40374433-20.90518189-8.3843689-3.92714635-6.5001043-4.14812684-12.48087357-4.14044189-19.85479736l-.0090034-2.70369697-.01168752-8.96982598-.01504517-6.43122864-.02401066-17.47350788-.01150417-10.91874218-.02720189-34.16816926-.05100059-39.43127346-.03304053-30.48709631-.02481961-18.20501065-.00986099-17.12823296-.01345826-6.27764511.00358201-8.5880413-.02441335-2.4923985c.05532485-6.52915531 1.22202111-12.79033093 5.04034352-18.21017719l1.7265625-1.59765625 1.7109375-1.65234375c5.22188841-3.84714635 10.31757564-3.70185566 16.55029297-3.68481445zm44.36376953 55.2746582l1 2zm-1 2l-6 13.8125-.9006958 2.07473755-10.4743042 24.55026245c-2.82960494 6.79017059-5.87119652 13.45210594-9.015625 20.1015625-4.50295366 8.41296507-4.50295366 8.41296507-6.609375 17.4609375 7.65855841-1.26318061 15.08905831-2.97440718 22.5625-5.0625l2.97851563-.81445312c4.8433422-1.25549271 4.8433422-1.25549271 9.45898437-3.12304688l-.49353027 1.97843933-5.06066895 20.39094544-1.89160156 7.609375-2.71044922 10.93920898-.86169433 3.43486023-.78869629 3.2143097-.69982911 2.81950378c-.4917584 2.6039751-.58477232 4.97041794-.49353027 7.61335754 1.90467519-2.85701277 3.34323031-5.65034536 4.828125-8.7421875l1.67578125-3.484375.87158203-1.82128906 2.57373047-5.35839844 11.05078125-23.59375 2.0625-4.48632812 6.8125-14.82617188 2.375-5.16992187 5.75-12.51757813c-3.93304472-1.3110149-6.66793949-.22827583-10.51171875.87109375l-2.20674133.6096344-6.96903992 1.95677185-4.72851562 1.31445313-11.58398438 3.24804687.37963867-1.86454773 3.89282227-19.22309875 1.45507812-7.17285156 2.08496094-10.31372071.6628418-3.23600769.60668945-3.03230285.53833008-2.65800476c.38573066-2.53957442.44720389-4.93495264.37963867-7.49946595h-1zm-12 127l1 2z" fill="#3be055"/><path d="M508.9560546875-.4599609375l4.30566406-.12304688c13.42499405-.51491428 13.42499405-.51491428 18.60546875 3.80175782 3.46089091 3.52768852 5.01800686 6.95124798 5.328125 11.89453125l-.0703125 3.19921875-.0546875 3.23828125-.0703125 2.44921875 2.48754883-.06347656 9.29833984-.15625 5.93872071-.13183594c12.53843225-.12697147 21.09790787 2.25841464 30.18164062 11.0546875 7.11507304 7.80534132 9.55007051 16.8331627 9.48815918 27.13763427l.01845789 2.91541505.00705481 9.62566162.02566528 6.92041015.02325249 18.76899243.01677751 15.68520283.01419288 39.13346771.04836047 33.92341774.04428297 34.89119652.02789259 19.5650003.00007248 18.40879059.01598358 6.73828888c.08906968 14.99338897-.31533892 27.15180688-11.24968338 38.60683441-6.47999784 5.36641392-14.42929936 9.0772659-22.89381408 9.12373352l-2.72221375.02168274-2.96429443.00814819-3.14030457.01991272-10.29499817.04136658-3.55793571.01235008-18.65324593.04453468-19.2193613.0851717-14.81699849.03810978-7.08162307.035038-9.94256401.01648521-2.9213562.03881836c-10.91400059-.08254804-19.23235851-3.57305201-27.01785279-11.16113281-11.55410596-12.55699401-10.59795175-28.28861404-10.54833984-44.35742188l-.01593018-6.6561737.00113726-17.99351311-.0041585-18.87729073.01877801-33.72129208-.00275628-30.51100772-.01316321-35.5194583-.00460946-18.77004671.01468277-17.65055275-.003788-6.45771408c-.08138377-29.0491491-.08138377-29.0491491 10.39799118-40.83318519 8.42148803-8.10699263 17.71636627-10.46743254 29.1875-10.3515625l3.9375.1015625 4.0546875.0546875 9.8203125.1953125-.05932617-2.25024414-.04614258-2.97241211-.05932617-2.93774414c.32821677-5.65553967 2.71196106-9.4905396 6.78979492-13.27709961 5.38629601-3.5436158 11.06949712-2.93435005 17.33105469-3.02246094zm-62.20605469 40.58496094l-1.890625 1.5703125c-5.18638434 6.4285016-6.44977239 13.13939957-6.37403869 21.20323181l-.02104706 2.89753157.00226349 9.54742998-.02610779 6.87147522-.01067853 18.61965632-.00947207 15.55916721.0061698 38.80866617-.02877016 33.65568631-.0308178 34.61327947-.01778752 19.41050428.0121994 18.253685-.01114845 6.68759727.0216713 9.15124893-.03586585 2.65216488c.10980742 7.33232988 2.47201891 13.72315141 7.34165669 19.29176295 6.8343191 6.60266257 15.46285682 7.53070438 24.56458574 7.46978372l2.97491455.01593018 9.65789795-.00567627 6.75732422.00869751 14.13134766-.01602173 18.06600952.01071739 13.94430542-.00038338 6.6595459.00743866 9.32427978-.02070236 2.74932862.0184021c7.95762412-.07849414 15.49133409-1.84466678 21.92254638-6.75033569 4.91417078-5.1831055 7.68891348-12.60711755 7.70174027-19.69967938l.01163983-2.42458027-.0026257-2.64617187.0090034-2.82485181.01168751-9.39373034.01504517-6.72634888.02401066-18.29184127.01150417-11.42778802.02587509-31.65715122.00066536-2.04599526.00066144-2.05082289.00133968-4.11401731.000671-2.06129692.04468852-33.04757987.03734192-33.95173285.02481961-19.05348605.009861-17.92844963.01345825-6.57274055-.003582-8.98888588.02441335-2.61237306c-.06746468-8.3247669-1.93806816-15.45331074-7.71612478-21.63282042-7.13420738-6.4024938-14.54489566-6.65421756-23.66333008-6.66503907l-3.03712463-.01504516-9.93235779-.02694702-6.91618347-.01727295-14.49812317-.01983643-18.55092335-.05797195-14.28648471-.02536392-6.83786393-.02418518-9.5776577-.00868989-2.8359375-.02792358c-7.47629708.04737663-13.97454021 1.45156333-19.78979492 6.5093689z" fill="#4f5353"/><path d="M1170.2578125-.686279296875l6.3125-.12426758c6.23711083-.08147585 11.33089864-.07690524 16.28125 4.10351563 3.31127592 3.41876091 5.05322885 6.13037596 5.34375 10.94140625l-.0703125 3.515625-.0546875 3.546875-.0703125 2.703125 2.59521484-.06347657 9.67285157-.15625 4.16015625-.08203125c11.18329339-.27453572 20.38852927.61287391 28.88427734 8.55175782 4.02784219 3.84447104 7.24284741 7.73846219 9.6875 12.75l1.04145908 2.01728534c1.35903998 4.22895714 1.24438498 8.21165757 1.23269558 12.62802411l.01586873 2.96142131.01637309 9.83345478.02522278 7.04704285.03582645 19.15340781.01700139 11.96804643.03887653 33.16019535.00056839 2.14253174.00109112 4.29970125.00055397 2.15583239.00054712 2.15847555.06795077 34.60702859.05774814 35.56210998.03799767 19.95394677.01234436 18.7755394.02081871 6.88109398-.00821305 9.41463471.03999991 2.7311775c-.12819304 9.77137471-4.78063962 17.48408357-11.33832449 24.50217516-6.65188256 5.87788611-14.07870276 9.14532187-22.9437561 9.19404602l-2.7263794.02168274-2.95339966.00814819-3.14074707.01991272-10.27868652.04136658-3.55515671.01235008-18.63380813.04453468-19.19573403.0851717-14.80412483.03810978-7.07324982.035038-9.92786789.01648521-2.91659546.03881836c-10.91548916-.08268947-19.18690044-3.59078888-27.00283813-11.13378906-8.60161291-9.44003728-10.32038752-19.28656903-10.29777527-31.72932434l-.00686532-2.79335803-.00468558-9.23439771-.01017761-6.63414002-.01181579-18.00019669-.00549722-11.25147224-.01266952-37.24280325.00012108-2.02568468.00012388-2.0281737-.02326225-32.53089215-.02040622-33.44691672-.01317806-18.76001817-.00248336-17.64787293-.00736046-6.46505928.00463104-8.84941482-.01558655-2.56197292c.07156939-12.49432302 3.25763034-23.16810799 12.26282471-32.17330235 7.4205447-5.19189118 13.96233801-8.27382617 23.1484375-8.1953125l1.99209595.00857544 6.23446655.06173706 4.25390625.02734375 10.37109375.09765625-.05712891-2.9350586-.04443359-3.8383789-.05712891-3.8100586c.20012959-4.30863598 1.10913139-6.36694388 4.15869141-9.4165039 6.19794269-4.83050271 11.74845505-4.71157802 19.2578125-4.6862793zm-64.7578125 43.0612793l-1.90625 2.2109375c-3.78054239 5.72640979-3.88442944 11.28959855-3.86117554 17.91387939l-.01373064 2.87738967-.00937116 9.53392625-.02035523 6.84059143-.02363157 18.57680225-.01099444 11.60975933-.02533905 38.4226158.00024216 2.09075853.00024776 2.09332463-.04652449 33.56896037-.04081245 34.50451336-.0263561 19.35698247-.00496674 18.21170616-.01472091 6.67307663.00926208 9.13202476-.03117311 2.64657521c.08048183 7.24387408 1.92127719 13.93143551 6.34986818 19.76352001l1.86328125 1.53515625 1.82421875 1.58984375c6.91595159 4.0931142 13.8284655 4.91373037 21.73046875 4.86083984l2.97491455.01593018 9.65789795-.00567627 6.75732422.00869751 14.13134766-.01602173 18.06600952.01071739 13.94430542-.00038338 6.65954589.00743866 9.32427979-.02070236 2.74932861.0184021c8.59577896-.08478891 17.26387369-2.10012555 23.49285889-8.40658569 3.70789847-5.36972862 6.11720795-10.47627239 6.13422108-17.05625344l.01350861-2.43326723-.00055867-2.65589559.01114148-2.83508814.01868945-9.42818701.01991272-6.7510376.04136658-22.19183349.01235008-7.64042282.03874874-31.783247.00578595-8.24381065.00146588-2.06956451.06611479-33.17165044.05427762-34.08395879.03646118-19.12568152.01723862-17.99986648.01955604-6.5956688-.00253296-9.02724838.03324014-2.61533701c-.07903574-7.54007908-2.21882811-14.61039502-6.83348733-20.6669811-7.38250066-7.2108146-14.79252122-7.7737871-24.64331055-7.80200196l-3.02738952-.01991272-9.90351868-.04136657-3.42521095-.01235009-17.94954491-.04453468-18.49652386-.0851717-14.260993-.03810978-6.8161583-.03503799-9.56206703-.01648522-2.81414795-.03881836c-8.44862895.06654516-16.70873343 2.14534831-22.28863525 8.88378907z" fill="#505455"/><path d="M724.182373046875-.61083984375l6.33911133-.15087891c6.2517365-.1010923 11.36793734-.14496225 16.33398437 4.05078125 3.30656864 3.42046104 5.04946418 6.13662676 5.33984375 10.9453125l-.0703125 3.515625-.0546875 3.546875-.0703125 2.703125 2.59521485-.06347656 9.67285156-.15625 4.16015625-.08203125c11.1832934-.27453572 20.38852927.6128739 28.88427734 8.55175781 7.18631079 6.88171049 11.6471528 14.12628827 11.9419756 24.25348378l.00622081 5.19251537.01159257 2.90472764.00236923 9.60752517.01548767 6.90014648.0114367 18.72538018.00860542 15.64088196.00444319 39.01666715.02509822 33.84036375.02387675 34.78937146.01471454 19.51455146-.00241089 18.35702324.00862312 6.72629356-.01031113 9.20411873.02234632 2.66808969c-.0910888 10.54396162-3.06672826 18.78699504-10.39656812 26.40886038-6.97504064 6.16712089-14.14434995 10.10399685-23.59611511 10.1404419l-2.70526123.01730347-2.92982483.00338745-3.11605835.01504516-10.19570923.02694702-7.10359192.01727295-14.89665222.01983643-19.04133129.05797195-14.67790127.02536393-7.01711654.02418518-9.84226418.00868988-2.89915466.02792358c-11.44891114-.07031126-19.69318372-3.29135048-27.88917542-11.2359314-8.73985645-9.31509117-10.24608779-19.1045665-10.22355652-31.50276184l-.00686532-2.79335803-.00468558-9.2343977-.01017761-6.63414002-.01181579-18.00019669-.00549721-11.25147224-.01266953-37.24280325.00012108-2.02568468.00012388-2.02817371-.02326225-32.53089215-.02040622-33.44691672-.01317805-18.76001817-.00248337-17.64787292-.00736046-6.46505928.00463104-8.84941483-.01558655-2.56197291c.07156939-12.49432302 3.25763035-23.16810799 12.26282471-32.17330236 7.4205447-5.19189117 13.96233801-8.27382617 23.1484375-8.1953125l1.99209595.00857544 6.23446655.06173706 4.25390625.02734375 10.37109375.09765625-.07690429-2.9152832-.05981446-3.82299805-.07690429-3.7902832c.31365171-5.09693003 1.63741187-6.89522437 5.21362304-10.47143555 5.59521319-4.10352239 11.53774767-3.59395778 18.18237305-3.61083984zm-64.68237305 42.98583984l-1.90625 2.2109375c-3.78054239 5.7264098-3.88442944 11.28959855-3.86117553 17.9138794l-.01373065 2.87738967-.00937116 9.53392625-.02035523 6.84059143-.02363157 18.57680225-.01099443 11.60975933-.02533905 38.4226158.00024215 2.09075853.00024777 2.09332463-.0465245 33.56896037-.04081245 34.50451335-.0263561 19.35698247-.00496673 18.21170616-.01472092 6.67307663.00926208 9.13202477-.03117311 2.64657521c.08048183 7.24387407 1.92127719 13.93143551 6.34986818 19.76352l1.86328125 1.53515625 1.82421875 1.58984375c6.91595159 4.09311421 13.8284655 4.91373038 21.73046875 4.86083985l2.97491455.01593017 9.65789795-.00567627 6.75732422.00869751 14.13134766-.01602173 18.06600952.0107174 13.94430542-.00038338 6.6595459.00743866 9.32427978-.02070236 2.74932862.0184021c8.59577895-.08478892 17.26387368-2.10012556 23.49285888-8.4065857 3.70852538-5.37063649 6.11957734-10.47747782 6.13142777-17.05904674l.01163983-2.43513602-.0026257-2.65796262.0090034-2.83722621.01168752-9.43518895.01504516-6.75590515.02401066-18.37241722.01150417-11.47804093.02587509-31.79612064.00066536-2.05498802.00066144-2.05983789.00133968-4.13210422.000671-2.07035938.04468852-33.19307672.03734192-34.10089449.02481962-19.13732308.00986099-18.00724411.01345825-6.60176658-.003582-9.02829743.02441335-2.6241638c-.0672678-8.33603071-1.92929944-15.4701059-7.71612478-21.65899355-7.12113143-6.39075897-14.52845074-6.65483477-23.63159179-6.6809082l-3.02738953-.01991272-9.90351868-.04136658-3.42521095-.01235008-17.94954491-.04453468-18.49652385-.0851717-14.26099301-.03810978-6.81615829-.035038-9.56206703-.01648521-2.81414795-.03881836c-8.44862896.06654516-16.70873344 2.14534831-22.28863526 8.88378906z" fill="#4f5354"/><path d="M284.12109375-.56640625l2.00904846-.01878357 4.18260193.0087738 6.34545899-.05834961c11.27175526-.06369775 11.27175526-.06369775 15.69726562 3.01757813C316.62855094 6.61171215 318.52681521 9.9668939 319 16c-.25265544 2.67986168-.6380097 5.33169274-1 8l2.56347656-.0793457 9.59472657-.1953125 4.11914062-.10253907C346.08673364 23.25591745 355.98384384 24.86859733 365 33v2h2c7.3462307 10.10106722 9.15625471 20.00947992 9.13371277 32.23370361l.00686532 2.75409675.00468558 9.10301995.01017761 6.54060364.01181579 17.74627399.00549722 11.09470654.01242456 40.72749397.02586755 34.06370595.01780092 30.9917655.01317806 18.49686551.00248336 17.40411186.00736046 6.3718834c.08506543 31.89124288.08506543 31.89124288-10.9393692 43.78426933-6.75238997 6.31757698-14.66192534 9.79232162-23.91534424 9.82794189l-2.7096405.01730347-2.93458557.00338745-3.12092591.01504517-10.21012878.02694702-7.11077881.01727295-14.90924072.01983642-19.06853104.05797196-14.69064712.02536392-7.02796936.02418518-9.85005951.00868988-2.91004944.02792359c-10.43391933-.06417517-19.22829215-3.28263545-26.99131775-10.3218689-11.40326402-11.80374833-10.44140678-25.48405771-10.38085938-40.90844727l-.02124023-6.96102905.00151634-18.83623624-.00554466-19.74495577.02503735-35.27067977-.00367504-31.9336812-.01755095-37.15314907-.00614595-19.64180523.01957702-18.46552467-.00505066-6.76500511.02272034-9.25602532-.02703905-2.68340307c.12881106-10.35690371 4.09952579-17.85418751 11.16387987-25.24333948 6.9389997-6.43600796 13.96805162-9.47616783 23.51953125-9.39453125l1.99209595.00857544L252.375 23.875l4.25390625.02734375L267 24l-.05712891-2.70092773-.04443359-3.54516602-.05712891-3.51342773C267.06994987 9.5716237 268.06889792 7.62531047 271 4c4.46255546-3.54610544 7.44887571-4.51595165 13.12109375-4.56640625zM225 43c-3.20973273 5.04803421-5.12060904 10.04856408-5.13142776 16.06184006l-.01163984 2.4370048.00262571 2.66002965-.00900341 2.83936429-.01168751 9.44219089-.01504517 6.7607727-.02401066 18.38461209-.01150417 11.48404789-.02587509 31.80899429-.00066535 2.05575032-.00066145 2.06061201-.00133967 4.13368726-.000671 2.07115427-.04468853 33.21450299-.03734192 34.11783018-.02481961 19.14896465-.00986099 18.01462173-.01345826 6.60786438.003582 9.02934647-.02441334 2.6329906C219.674752 286.20650752 222.07567077 294.0174464 228 300c5.48790013 3.79931547 10.61856138 6.11361179 17.33073425 6.14044189l2.60348511.01730347 2.83213806.00338745 3.0022583.01504517 9.83685303.02694702 6.84602356.01727295 14.36222839.01983642 18.36574841.05797196 14.14764309.02536392 6.76839828.02418518 9.49115944.00868988 2.8014679.02792359c8.53267601-.0544172 15.751388-1.77581758 22.10795593-7.7046814 4.37549165-4.88691276 6.62135232-10.22230728 6.63812733-16.76717567l.01350861-2.45437873-.00055867-2.67947709.01114148-2.85983694.01868945-9.51110423.01991272-6.81015014.04136658-22.3866272.01235008-7.70728683.03874874-32.06118584.00578595-8.31599999.00146588-2.08768944.06611479-33.46264413.05427762-34.38228206.03646118-19.29335559.01723862-18.15745544.01955604-6.65372086-.00253296-9.10607147.03324014-2.63891852c-.07519075-7.23431061-1.90022291-13.95825566-6.38036233-19.74667108L357.25 40.0625l-1.859375-1.58984375c-6.85111158-4.22037429-12.95149374-4.91158495-20.81054687-4.86083984l-3.06800843-.01593018c-3.32709957-.01314032-6.65371576-.00448285-9.9808197.00567627l-6.97058105-.00869751c-4.86191878-.00441528-9.72367183.00198223-14.58557129.01602173-6.2206822.01709118-12.44097603.00724576-18.66164399-.01071739-4.79564063-.01085922-9.59118974-.00738164-14.38683319.00038337-2.29324388.00199609-4.58649616-.00043639-6.87973022-.00743866-3.20921223-.0076495-6.41780229.00403925-9.62696839.02070237l-2.84999084-.0184021C238.54828831 33.67985266 231.10246834 36.07664125 225 43z" fill="#505455"/><path d="M510.8125 385.75l3.23632812-.0625c7.67821037-.03798744 12.74541264.60541442 18.76367188 5.6875 3.74499163 4.49398995 4.43966357 8.15155745 4.3125 13.9375l-.0546875 3.23828125L537 411l2.65527344-.09521484 9.93017578-.234375 4.26464844-.12304688C565.98127198 410.11074374 575.16409639 412.42751224 584.4375 420.75c5.68707691 6.16099999 9.67164788 13.91849522 9.69951439 22.39437103l.0153774 2.49286413.00150836 2.72250605.01327955 2.90505838.02569139 9.66293479.02478028 6.91864013.05578613 22.74737549.01613235 7.83345032.0516224 32.59131622.00890541 8.45413971.00226076 2.12234956.08754107 34.00177896.07121332 34.94505721.04810274 19.60542059.02461624 18.45787812.02565384 6.75762939c.10677336 14.45521478-.02622618 26.77883701-10.57432938 37.88332367-5.70897971 4.92002282-12.03204956 8.85119088-19.68101501 8.91453552l-2.89215088.03044129-3.16877747.01766967-3.34188843.02964783-10.97866821.07020569-3.7909565.01991463-15.78876209.06449604-22.55349058.13343757-17.81680494.08175999-7.54804612.05674362c-26.9095735.29777703-26.9095735.29777703-38.97459602-10.5399456-8.3067217-9.09947937-9.81415013-19.89997148-9.76069641-31.86459351l-.01159257-2.80922377-.00236922-9.23389756-.01548767-6.6552887-.0114367-18.01866102-.00860543-15.06665719-.00444319-37.58726187-.02509822-32.57476553-.02387674-33.52181144-.01471454-18.79025686.00241088-17.67509651-.00862312-6.46738434c-.05609249-15.74692511-.04320704-29.64164806 11.20093918-41.8288517 8.17485629-7.79501448 16.64812362-9.55041052 27.7265625-9.3828125L470.625 410.75l4.19921875.0546875L485 411l-.05712891-2.25244141-.04443359-2.97412109-.05712891-2.93994141c.28082629-5.01426141 2.22402912-8.75916566 5.61962891-12.39990234 6.12011592-5.45218449 12.5718962-4.64643713 20.3515625-4.68359375zM444 430c-3.1349707 4.35412597-5.11921898 7.61065877-5.13701439 13.01129246l-.0153774 2.48001247-.00150836 2.72367615-.01327955 2.89437097-.02569139 9.64479834-.02478028 6.89837647-.05578613 22.69512939-.01613235 7.81036186-.0516224 32.49083996-.00890541 8.43097591-.00226076 2.1165905-.08754107 33.91872497-.07121332 34.84323214-.04810274 19.55497176-.02461624 18.40611076-.02565384 6.74563408.00148392 9.23103523-.04206693 2.67635781c.09037749 7.1524311 2.27433519 13.62671974 7.09276199 19.0518589 7.71207903 6.77486656 15.40055683 7.52469692 25.1459297 7.53678268l2.90916443.01504517 9.51393127.02694702 6.63276672.01727295 13.90800476.01983643 17.77011395.05797195 13.70511532.02536392 6.54821396.02418518 9.18847084.00868988 2.70080566.02792359c9.18944228-.06035526 17.10417758-1.98954752 23.84338379-8.4156189 4.43240879-5.15920099 6.81054283-11.21577622 6.82283401-18.01217937l.01163984-2.42458028-.00262571-2.64617187.00900341-2.82485181.01168751-9.39373034.01504517-6.72634888.02401066-18.29184127.01150417-11.42778802.02587509-31.65715122.00066535-2.04599525.00066145-2.0508229.00133968-4.11401731.00067099-2.06129691.04468853-33.04757987.03734192-33.95173285.02481961-19.05348605.00986099-17.92844963.01345826-6.57274056-.003582-8.98888588.02441334-2.61237305c-.05986089-7.38650166-1.48241394-14.77022232-6.51690602-20.44922668l-1.5703125-1.86328125c-6.74630907-5.33987515-13.6128645-6.41302869-22.00585938-6.34179687l-3.12269592-.02124024c-3.38190739-.01750139-6.76296737-.00598465-10.1448822.00756836l-7.09362793-.01159668c-4.94594932-.00588444-9.89160888.00263425-14.83752441.0213623-6.32490862.02278844-12.64913818.00965976-18.97402192-.01428985-4.87976911-.01448623-9.75937847-.00983894-14.63915252.00051117-2.33149294.00265945-4.66300059-.00057483-6.99447632-.00991821-3.26414658-.0102118-6.52720876.00540133-9.79127502.02760315l-2.89100647-.02453614C456.94399174 420.56904104 449.79931871 423.04081754 444 430z" fill="#4e5152"/><path d="M1171.75 385.75l3.25-.0625c7.70796546-.03797027 12.82580392.56153006 18.8125 5.75 3.85138109 4.51161785 4.43172255 7.35137271 4.3125 13.3125l-.0546875 3.546875L1198 411l2.65527344-.09521484 9.93017578-.234375 4.26464844-.12304688c11.30855076-.40701206 20.04169209 1.40672391 29.02490234 8.82763672L1246 422l1.515625 1.84375c5.9701078 7.53508751 7.93388551 13.5183322 7.89224243 23.0218811l.02273405 2.96018541.02105868 9.7938124.03540039 7.03332519.04764223 19.09167528.02249861 11.93699217.05187797 33.09608269.00047144 2.13700165.00085615 4.28830415.00043289 2.1500173.00042324 2.15266364.09121302 34.50356915.07815437 35.48437254.05117571 19.89881194.01482773 18.72886276.02817917 6.85313034c.12712504 14.04972897-.2137336 24.66060581-10.1683979 35.52987481-7.93002097 7.84152537-16.17673978 10.09782456-27.09435463 10.04500389l-3.34454346.03097534-10.88079834.02127075-7.6101532.02597046-15.92964172.0038147c-6.10954947-.01206649-12.21817623.01252321-18.32756835.05514013l-17.73034448.03852976-7.49780655.03162384c-26.43377217.18747858-26.43377217.18747858-38.22870445-10.00664139-8.2624689-9.14917288-10.37937988-20.41057254-10.31646729-32.34483337l-.00945448-2.79853636.00463271-9.21576113-.01062012-6.63502502.00075817-17.97504878-.00277233-18.83610845.01251867-33.65668917-.00183752-30.47037077-.00877547-35.44132715-.00307298-18.73980802.00978852-17.62332917-.00252533-6.45538902.01136016-8.83595657-.01351952-2.55783886c.07953406-12.22417249 2.94384525-22.22422858 11.27139306-31.33975941C1103.2892281 416.82178176 1106.96942868 414.83725689 1111 413l2.18383789-1.05078125c3.49026234-1.17643173 6.40418594-1.17483172 10.08569336-1.14453125l2.06364441.00857544L1131.8125 410.875l4.41210938.02734375L1147 411l-.05712891-2.93505859-.04443359-3.83837891-.05712891-3.81005859C1147.04143818 396.10786792 1147.95043998 394.04956002 1151 391c6.95713153-5.25334422 12.33849323-5.21013504 20.75-5.25zm-66.1875 43.625l-1.93359375 2.2109375c-3.84398231 5.69683709-3.91957217 11.29506151-3.89633179 17.92060852l-.01373064 2.87952775-.00937116 9.54092818-.02035523 6.84545899-.02363157 18.58899712-.01099444 11.61576629-.02533905 38.43781278.00024216 2.09155467.00024776 2.09411951-.04652449 33.59038664-.04081245 34.52144905-.0263561 19.36862404-.00496674 18.21908378-.01472091 6.67917442.00926208 9.13307381-.03117311 2.65540201C1099.56400079 673.81758505 1102.22442381 681.22442381 1108 687c7.74341472 5.11357576 14.67987595 6.2999694 23.81567383 6.2746582l2.91004944.01548767 9.48130798.01063538 6.62419128.01298523 13.87214661.00190735 17.72285938.03434467 13.67936802.01249027 6.53146744.01581192 9.1590786-.00600624 2.69128418.02316284c9.23998964-.07669663 17.06653626-2.02896915 23.82116699-8.49703979 6.28663969-7.056136 6.84085232-14.08877605 6.83184814-23.13287354l.00900341-2.82744097.01168751-9.38441205.01504517-6.72679138.02401066-18.27926732.01150417-11.42127132.02587509-31.64440536.00066535-2.04437368.00066145-2.04916199.00133968-4.11060786.00067099-2.05958328.04468853-33.02798956.03734192-33.93826768.02481961-19.04338098.00986099-17.91617774.01345826-6.56790543-.003582-8.98215675.02441334-2.61030603c-.05989108-7.38462213-1.48386261-14.76719435-6.51690602-20.44456458l-1.5703125-1.86328125c-6.74630907-5.33987515-13.6128645-6.41302869-22.00585938-6.34179687l-3.12269592-.02124024c-3.38190739-.01750139-6.76296737-.00598465-10.1448822.00756836l-7.09362793-.01159668c-4.94594932-.00588444-9.89160888.00263425-14.83752441.0213623-6.32490862.02278844-12.64913818.00965976-18.97402192-.01428985-4.87976911-.01448623-9.75937847-.00983894-14.63915252.00051117-2.33149294.00265945-4.66300059-.00057483-6.99447632-.00991821-3.26414658-.0102118-6.52720876.00540133-9.79127502.02760315l-2.89100647-.02453614c-8.41725581.10552722-15.67016011 2.30759655-21.24766541 8.91711426zM292.75 385.6875l3.2109375-.08789062c7.94569098-.06407816 13.45739422 1.0072312 19.4140625 6.65039062 3.79763562 6.42676797 3.67321423 11.53315813 2.625 18.75l2.70288086-.06347656 10.04736328-.15625 4.32617188-.08203125C348.31199776 410.386277 357.06655498 412.85891149 367 422c8.25948652 8.8964121 9.15500562 20.66866085 9.13371277 32.27839661l.00686532 2.76860922.00468558 9.1514805.01017761 6.57502746.01181579 17.83904481.00549722 11.15096641.01266952 36.91077808-.00012108 2.00758168-.00012388 2.01004877.02326225 32.23989845.02040622 33.14859345.01317806 18.59234411.00248336 17.49028396.00736046 6.40700722-.00463104 8.77059174.01558655 2.53839141C376.19708343 673.25632525 373.73029148 684.10190214 365.9375 692.75c-12.79072251 11.06104905-25.67826897 10.13800859-41.84375 10.046875l-7.59729004.01739502c-5.29213425.00881654-10.58381073-.0033355-15.87585449-.03204346-6.08751044-.03264525-12.17381454-.02206456-18.2612958.01095844l-17.68711424.00970959c-2.49089734-.00398152-4.98182582.00083499-7.47268676.01487732-26.70869985.11755441-26.70869985.11755441-36.62345887-9.06197357-6.19456116-6.35792099-10.68761155-13.88827635-10.71027088-22.92137337l-.01350861-2.50715744.00055867-2.73843086-.01114148-2.92170894-.01868945-9.71839726-.01991272-6.95793152-.04136658-22.87361145-.01235008-7.87444687-.03874874-32.75603294-.00578595-8.49647331-.00146588-2.13300179-.06611479-34.19012836-.05427762-35.12809025-.03646118-19.71254074-.01723862-18.55142785-.01955604-6.79885101.00253296-9.30312919-.03324014-2.69787229C209.58335452 435.22438713 213.72717427 426.20395428 221 419c7.07400332-5.1618118 13.4360065-8.26801641 22.26953125-8.1953125l2.06364441.00857544L251.8125 410.875l4.41210938.02734375L267 411l-.0769043-2.9152832-.05981445-3.82299805-.0769043-3.7902832C267.10002867 395.37450552 268.42378883 393.57621117 272 390c6.43366811-4.70756203 13.06252266-4.24336801 20.75-4.3125zm-66.625 43l-1.6171875 1.82421875c-4.0667141 6.71113182-4.94854506 13.53698796-4.88876343 21.24842834l-.01418173 2.85231013.00694907 9.39559942-.01593018 6.76298523.00113726 18.3217423-.0041585 19.19125819.01877801 34.28464722-.00275628 31.055578-.01316321 36.11147779-.00460947 19.09843928.01468277 17.95326233-.00378799 6.58368873.01704025 8.99570084-.02027929 2.62265545C219.67551882 672.95120154 221.85887804 679.7472841 227 686c7.8102806 6.27953518 16.20169707 7.30042842 25.91333008 7.29052734l2.90562439.02035523 9.45057678.02505493 6.61271667.02017212 13.84162903.01449585 17.67203236.06154442 13.65374851.02523613 6.51224137.02666473c17.88112266.39946928 17.88112266.39946928 33.87560081-6.79655075 6.92895421-7.26695197 7.71243002-14.38171505 7.70294189-24.0045929l.00900341-2.85432785.01168751-9.4743312.01504517-6.79077149.02401066-18.45261407.01150417-11.52778411.02587509-31.93521785.00066535-2.06312151.00066145-2.06796609.00133968-4.14836473.00067099-2.07850309.04468853-33.34040953.03734192-34.25352665.02481961-19.22269661.00986099-18.08114433.01345826-6.63205528-.003582-9.06202889.02441334-2.64271432c-.05855939-7.26463993-1.61839334-13.67322313-6.51690602-19.3053295l-1.5703125-1.890625c-6.69882154-5.40447297-13.62345998-6.44809502-22.00585938-6.37695312l-3.12269592-.02124024c-3.38190739-.01750139-6.76296737-.00598465-10.1448822.00756836l-7.09362793-.01159668c-4.94594932-.00588444-9.89160888.00263425-14.83752441.0213623-6.32490862.02278844-12.64913818.00965976-18.97402192-.01428985-4.87976911-.01448623-9.75937847-.00983894-14.63915252.00051117-2.33149294.00265945-4.66300059-.00057483-6.99447632-.00991821-3.26414658-.0102118-6.52720876.00540133-9.79127502.02760315l-2.89100647-.02453614c-7.83818505.0982674-15.43497627 1.99991222-20.68516541 8.22961426z" fill="#515556"/><path d="M725.75 385.75l3.25-.0625c7.70796546-.03797027 12.82580392.56153006 18.8125 5.75 3.85138109 4.51161785 4.43172255 7.35137271 4.3125 13.3125l-.0546875 3.546875L752 411l2.65527344-.09521484 9.93017578-.234375 4.26464844-.12304688c11.30855076-.40701206 20.04169209 1.40672391 29.02490234 8.82763672L800 422l1.515625 1.7734375c6.25236526 7.67887579 7.93868458 15.39309471 7.87205505 25.15634155l.01631982 2.90776789.00005286 9.58188665.02079773 6.89616394.01105762 18.6880374.00903875 15.6185323-.00086331 38.9608856.02693419 33.77975687.02734727 34.74550541.01625103 19.48269975-.00730514 18.32510185.00988579 6.71052552C809.57960187 669.04847984 809.54950736 681.94120608 799 693c-8.2055391 7.3532326-15.32658948 9.45007361-26.16088867 9.43579102l-3.34365845.03053283-10.91342163.0375824-7.61872864.03025818-15.96549988.02174377c-6.12424895-.00179886-12.2477022.02979815-18.37175005.07723099l-17.75916463.05293984-7.51455307.0399971c-26.48615483.22312013-26.48615483.22312013-38.28983498-9.97607613-8.2624689-9.14917288-10.37937988-20.41057254-10.31646729-32.34483337l-.00945448-2.79853636.00463271-9.21576113-.01062012-6.63502502.00075817-17.97504878-.00277233-18.83610845.01251867-33.65668917-.00183752-30.47037077-.00877547-35.44132715-.00307298-18.73980802.00978852-17.62332917-.00252533-6.45538902.01136016-8.83595657-.01351952-2.55783886c.07953406-12.22417249 2.94384525-22.22422858 11.27139306-31.33975941C657.2892281 416.82178176 660.96942868 414.83725689 665 413l2.18383789-1.05078125c3.49026234-1.17643173 6.40418594-1.17483172 10.08569336-1.14453125l2.06364441.00857544L685.8125 410.875l4.41210938.02734375L701 411l-.05712891-2.93505859-.04443359-3.83837891-.05712891-3.81005859C701.04143818 396.10786792 701.95043998 394.04956002 705 391c6.95713153-5.25334422 12.33849323-5.21013504 20.75-5.25zm-66.1875 43.625l-1.93359375 2.2109375c-3.84398231 5.69683709-3.91957217 11.29506151-3.89633179 17.92060852l-.01373064 2.87952775-.00937116 9.54092818-.02035523 6.84545899-.02363157 18.58899712-.01099444 11.61576629-.02533905 38.43781278.00024216 2.09155467.00024776 2.09411951-.04652449 33.59038664-.04081245 34.52144905-.0263561 19.36862404-.00496674 18.21908378-.01472091 6.67917442.00926208 9.13307381-.03117311 2.65540201C653.56400079 673.81758505 656.22442381 681.22442381 662 687c7.74341472 5.11357576 14.67987595 6.2999694 23.81567383 6.2746582l2.91004944.01548767 9.48130798.01063538 6.62419128.01298523 13.87214661.00190735 17.72285938.03434467 13.67936802.01249027 6.53146744.01581192 9.1590786-.00600624 2.69128418.02316284c9.23998964-.07669663 17.06653626-2.02896915 23.82116699-8.49703979 6.28663969-7.056136 6.84085232-14.08877605 6.83184814-23.13287354l.00900341-2.82744097.01168751-9.38441205.01504517-6.72679138.02401066-18.27926732.01150417-11.42127132.02587509-31.64440536.00066535-2.04437368.00066145-2.04916199.00133968-4.11060786.00067099-2.05958328.04468853-33.02798956.03734192-33.93826768.02481961-19.04338098.00986099-17.91617774.01345826-6.56790543-.003582-8.98215675.02441334-2.61030603c-.05989108-7.38462213-1.48386261-14.76719435-6.51690602-20.44456458l-1.5703125-1.86328125c-6.74630907-5.33987515-13.6128645-6.41302869-22.00585938-6.34179687l-3.12269592-.02124024c-3.38190739-.01750139-6.76296737-.00598465-10.1448822.00756836l-7.09362793-.01159668c-4.94594932-.00588444-9.89160888.00263425-14.83752441.0213623-6.32490862.02278844-12.64913818.00965976-18.97402192-.01428985-4.87976911-.01448623-9.75937847-.00983894-14.63915252.00051117-2.33149294.00265945-4.66300059-.00057483-6.99447632-.00991821-3.26414658-.0102118-6.52720876.00540133-9.79127502.02760315l-2.89100647-.02453614c-8.41725581.10552722-15.67016011 2.30759655-21.24766541 8.91711426z" fill="#505455"/><path d="M79.638671875-.295166015625l6.26757812-.10522461 4.015625-.02539062 3.67480469-.04418946c5.2062444.71893978 8.25664619 3.19933181 11.71582031 7.03247071 2.72891272 3.94176281 2.80031413 6.94578603 2.75 11.625l-.02734374 3.29296875-.03515626 2.51953125 2.50341797-.06347657 9.33740235-.15625 5.97167968-.13183593c11.23607925-.11349575 20.65247725 2.04634274 28.96484376 10.06640625 8.29136831 8.85230654 10.3746983 17.82802854 10.36309814 29.62675476l.0090034 2.8624261.01168752 9.50178593.01504516 6.81059265.02401066 18.50880027.01150418 11.56602311.02587509 32.04843998.00066535 2.07058965.00066145 2.07543285.00133967 4.16328555.000671 2.08597581.04468852 33.44305383.03734192 34.36881688.02481962 19.28325052.00986099 18.14518356.01345825 6.64888573-.003582 9.09934234.02441335 2.63685149c-.08748641 10.95231888-3.53377773 20.56147242-11.39581227 28.31622774-8.59288459 7.22478668-17.94335744 9.63481789-28.984375 9.54101562l-3.1434021.02124024c-3.39388623.01745719-6.78692347.00600055-10.18081666-.00756836l-7.13793945.01159668c-4.97268228.00587846-9.94507602-.00261486-14.91772461-.02136231-6.35155712-.02278804-12.70243798-.00965614-19.05397033.01428986-4.90901216.01450247-9.81786583.00983153-14.72688294-.00051117-2.34100425-.00265498-4.68202321.00055885-7.02301025.00991821-3.2802809.01023882-6.55948946-.00543855-9.83969116-.02760315l-2.88803101.02453613c-9.85344533-.12240712-18.47860968-3.15814099-26.09243775-9.475708-3.45858242-3.55951382-5.76239877-7.67128496-8.0078125-12.06640625l-1.058209-1.88052309c-1.02853385-2.31468952-1.19510378-3.84385508-1.20185321-6.36313879l-.02141089-2.55993617.00731844-2.79738462-.01586872-2.98358095-.0163731-9.92569029-.02522278-7.10571289-.03582644-19.32713366-.01700139-12.07506895-.03887654-33.45088005-.00056839-2.16213884-.00109111-4.33915906-.00055397-2.17564874-.00054712-2.17831413-.06795077-34.91761259-.05774815-35.87389843-.03799766-20.1317259-.01234436-18.94540024-.02081871-6.94398117.00821304-9.50018692-.0399999-2.75682605c.12263864-9.43111974 4.3562515-17.01333577 10.69769949-23.85215222 6.74519163-6.04509191 14.89137143-9.0288236 23.88671874-8.94921875l3.90625.01953125 4.0390625.05078125 4.109375.02734375 10.015625.09765625-.05932617-2.25024414-.04614257-2.97241211-.05932618-2.93774415c.32821678-5.65553966 2.71196106-9.49053959 6.78979492-13.2770996 5.32548072-3.50360574 10.82989597-2.82230129 17.01367188-2.85766602zm-61.88867188 40.48266602l-1.890625 1.60546875c-5.22540651 6.2024258-6.44747697 12.07937789-6.36730957 20.03001403l-.01890897 2.90945489.00926542 9.60520881-.02124023 6.90545654.00151634 18.7250011-.00554466 19.61028028.02503734 35.04239565-.00367504 31.73688596-.01755095 36.89815575-.00614595 19.51608795.01957703 18.35212898-.00505066 6.72755623.02272033 9.19843864-.02703905 2.67484946c.08851614 7.0567218 1.94199183 12.99918708 6.35919238 18.57980448l1.86328124 1.5703125 1.82421876 1.6171875c6.8738891 4.16533939 13.83901004 4.94881604 21.73046874 4.89599609l2.97491456.01593018 9.65789794-.00567627 6.75732422.00869751 14.13134766-.01602173 18.06600952.01071739 13.94430542-.00038338 6.6595459.00743866 9.32427978-.02070236 2.74932862.0184021c9.01521653-.08892625 16.14277101-2.21013853 22.76629638-8.43783569 4.47926113-5.10757378 6.84567295-11.21572749 6.85799027-17.99656201l.01163983-2.41402453-.0026257-2.63438112.0090034-2.81247741.01168752-9.35227173.01504516-6.6967926.02401066-18.21126533.01150418-11.3775351.02587509-31.5181818.00066535-2.0370025.00066145-2.0418079.00133967-4.0959304.000671-2.05223444.04468852-32.90208303.03734192-33.80257121.02481962-18.96964902.00986099-17.84965515.01345825-6.54371453-.003582-8.94947433.02441335-2.6005823c-.07604259-9.3430375-2.82347903-17.34308333-9.39190603-24.11055356-6.82300834-5.21139269-13.78630206-5.1513998-21.98754882-5.16113282l-3.03712464-.01504516-9.93235778-.02694702-6.91618348-.01727295-14.49812317-.01983643-18.55092334-.05797195-14.28648472-.02536393-6.83786392-.02418518-9.5776577-.00868988-2.8359375-.02792358c-7.50034903.04752904-13.99392926 1.44569359-19.78979493 6.5718689z" fill="#4d5152"/><path d="M951.2578125-.706787109375l6.3125-.06469727c7.08379516-.04495513 12.51455762.28491 18.03369141 5.05590821 4.55063366 5.59239292 4.51161977 11.85041995 4.39599609 18.71557617l2.47167969.01245117 9.25927734.14013672 5.90576172.05249023c10.67856709.24392666 20.82955225 2.43408595 28.8359375 9.99023438 3.0458716 3.59895826 5.3840539 7.61764137 7.52734375 11.8046875l1.06130219 2.05206203c1.33988763 4.20785643 1.227934 8.18864791 1.2195816 12.57978917l.0180068 2.95714515.02337503 9.81945092.03009034 7.03730773.04802131 19.12901807.02300835 11.95603252.05175018 33.13444805.00133071 2.14100712.00132289 2.14600456.00267935 4.30481476.001342 2.15688579.08937704 34.56417604.07468385 35.52823859.04963922 19.93066364.01972199 18.76078415.0269165 6.86889839c.11945949 14.66962484-.37810465 24.95608103-10.49214935 36.37077332-6.75470021 6.2231403-14.66462348 9.66757259-23.85284424 9.70294189l-2.7096405.01730347-2.93458557.00338745-3.12092591.01504517-10.21012878.02694702-7.11077881.01727295-14.90924072.01983642-19.06853104.05797196-14.69064712.02536392-7.02796936.02418518-9.85005951.00868988-2.91004944.02792359c-10.7949809-.06639593-19.72688324-3.58346465-27.6124115-11.0484314-7.63692376-8.40445379-9.39339834-16.70345601-9.38262939-27.75346375l-.00900341-2.8871749-.01168751-9.58470315-.01504517-6.8697052-.02401066-18.66995215-.01150417-11.66652894-.02587509-32.32637882-.00066535-2.08857518-.00066145-2.09346283-.00133968-4.19945938-.00067099-2.10410074-.04468853-33.73404752-.03734192-34.66714016-.02481961-19.45092457-.00986099-18.30277253-.01345826-6.70693779.003582-9.17816543-.02441334-2.660433c.08874874-11.204175 3.55230825-19.25101509 11.20831227-27.30216771 8.81069946-8.38351403 17.93846355-9.68169171 29.75537109-9.39160156l2.05322266.05175781 4.19921875.0546875 10.17578125.1953125-.05712891-2.72070313-.04443359-3.56054687-.05712891-3.53320313c.20856537-4.18670911 1.28410598-6.15966747 4.15869141-9.18554687l2.1875-2.61328125c4.7759726-3.91900834 11.20510559-3.16504939 17.0703125-3.09350586zM886 43.000000000625c-3.20307532 5.05287565-5.11866828 10.04106646-5.13422108 16.05625343l-.01350861 2.43326724.00055867 2.65589559-.01114148 2.83508813-.01868945 9.42818702-.01991272 6.75103759-.04136658 22.1918335-.01235008 7.64042282-.03874874 31.78324699-.00578595 8.24381066-.00146588 2.0695645-.06611479 33.17165044-.05427762 34.08395879-.03646118 19.12568152-.01723862 17.99986649-.01955604 6.59566879.00253296 9.02724838-.03324014 2.61533702c.07846001 7.48515383 2.37191392 13.71019208 6.20848733 20.1044811 5.50624355 5.20860877 12.0536525 8.29760458 19.64323425 8.32794189l2.60348511.01730347 2.83213806.00338745 3.0022583.01504517 9.83685303.02694702 6.84602356.01727295 14.36222839.01983642 18.36574841.05797196 14.14764309.02536392 6.76839828.02418518 9.49115944.00868988 2.8014679.02792359c8.21046041-.05236227 15.86015928-1.59789377 21.93430221-7.46596128 5.67032657-6.48441658 7.4193715-13.54191745 7.30574906-21.94393557l.02149814-2.90225882-.01858371-9.54511362.02168273-6.87678528-.01409029-18.61927724-.00248075-19.51014781-.03929138-32.75648498-.02050781-33.65917969-.00221444-40.63012505.00154496-15.49333572-.03184891-18.24879074.00021553-6.68885994-.02944946-9.14556885.02497202-2.65892464c-.09401478-7.03655948-1.93840503-13.01540515-6.39901072-18.54430717l-1.890625-1.5703125-1.859375-1.6171875c-6.77087761-4.27052085-12.89720828-4.94698869-20.70288086-4.89599609l-3.03358459-.01593018c-3.28982927-.01314003-6.57916961-.00448229-9.8690033.00567627l-6.89613342-.00869751c-4.81064481-.00441538-9.62112215.00198195-14.43174744.01602173-6.15108308.01708154-12.30177312.00725194-18.45284176-.01071739-4.74506914-.0108672-9.49004591-.00737783-14.23511791.00038337-2.26729759.00199439-4.53460369-.00043036-6.80189133-.00743866-3.17548227-.00766163-6.35033809.00405643-9.525774.02070237l-2.8107605-.0184021c-9.26569376.08949015-17.40080246 2.17321145-23.63088989 9.40658569z" fill="#4e5253"/><path d="M953.75 385.6875l3.2109375-.08789062C963.81366412 385.54434545 968.17223761 386.33241281 974 390c3.9202272 3.9202272 5.90996366 7.91325422 6.07324219 13.51098633l-.02636719 2.69604492-.02050781 2.72192383L980 411l2.61108398-.06347656 9.71191407-.15625 4.18066406-.08203125c11.38232502-.2777173 19.52624501 1.33582462 28.57446289 8.46582031 6.35761705 6.07333336 10.90087076 13.37740803 11.18473053 22.28887367l.01802826 5.29916954.0180068 2.95973432.02337503 9.81013263.03009034 7.03775024.04802131 19.11644411.02300835 11.94951582.05175018 33.1217022.00133071 2.13938554.00132289 2.14434365.00267935 4.30140531.001342 2.15517216.08937704 34.54458573.07468385 35.51477341.04963922 19.92055858.01972199 18.74851226.0269165 6.86406327c.11598095 14.23221005-.27795047 24.53471787-9.86714935 35.79481506-1.84414673 1.60795593-1.84414673 1.60795593-3.875 3.125l-2.09017944 1.59089661c-10.90285918 6.71300986-23.53126153 5.25556719-35.88638306 5.17082214l-7.61166382.01020813c-5.30060174.00431843-10.6005743-.01177615-15.90103149-.04463196l-18.30913031-.01295882c-5.90648301.02103872-11.81267258.01352814-17.71917093-.00631875-2.49812436-.00582791-4.99627606-.00458-7.4943924.0040245-3.4961362.00803477-6.99062297-.01636417-10.48658371-.04920005l-3.09251403.02590942c-9.74144645-.15707332-17.46263369-4.00742139-24.58473206-10.59500122-7.34910093-8.43494239-8.97361283-16.7830128-8.97138977-27.54251099l-.01114148-2.89741122-.01868945-9.61915982-.01991272-6.89439392-.04136658-22.64808655-.01235008-7.80102158-.03874874-32.45247459-.00578595-8.41447258-.00146588-2.11236833-.06611479-33.85811809-.05427762-34.7993661-.03646118-19.52312004-.01723862-18.37418938-.01955604-6.72986603c-.08762879-15.15345068.06612649-26.81416972 11.11528015-38.26312828 6.77252918-6.17102165 13.4002857-9.43545933 22.64453125-9.359375l2.06364441.00857544L912.8125 410.875l4.41210938.02734375L928 411l-.0769043-2.68115234-.05981445-3.52978516-.0769043-3.49365234C928.09520962 396.53126915 929.76448459 393.43884015 933 390c6.31803838-4.77705341 13.14138702-4.24407722 20.75-4.3125zm-68.46620995 45.28547662c-4.07278497 6.43067013-4.72331634 13.33860947-4.6714701 20.77371222l-.01631982 2.84803397-.00005286 9.38159555-.02079773 6.75325012-.01105762 18.29735255-.00903875 15.29075176.00086331 38.13956375-.02693419 33.07369892-.02734727 34.01663292-.01625103 19.07515615.00730514 17.93850708-.00988579 6.57149315.01599122 8.99360275-.02910608 2.60500187c.09686835 8.04950026 2.34425113 15.20658105 7.84281152 21.20617062 7.34177121 6.68148344 15.77113233 7.21114578 25.26025391 7.23950195l2.90429687.01991272 9.49951172.04136658 3.28770065.01235008 17.23329544.04453469 17.7429142.0851717 13.69236946.03810977 6.53736115.035038c17.89852532.40822333 17.89852532.40822333 33.9672966-6.70348549 6.30578668-6.7671857 7.7115388-13.86181117 7.70967102-22.89578247l.01114148-2.87176025.01868945-9.56888306.01991272-6.84413147.03620553-18.626719.01751113-11.63531637.03874874-32.22577477.00578595-8.36190605.00146588-2.09926043.06611479-33.64915756.05427762-34.56184457.03646118-19.39893925.01723862-18.25589943.01955604-6.69367981-.00253296-9.15326118.03324014-2.6616031c-.07327687-7.06818098-2.05438733-12.78109551-6.16161233-18.55076873L1018.75 427.125l-1.578125-1.6171875c-6.53570013-4.53737455-13.05141777-4.95131341-20.74365234-4.92773438l-3.11738587-.02566528-10.14677429-.02316284-7.09072876-.02307129-14.84286499-.00915527c-6.32378872.00589422-12.64680923-.02469317-18.97044945-.06511688l-14.63928032-.02510834-6.99199676-.02914429c-3.26657393-.02226481-6.5316048-.01244837-9.79817581.00511169l-2.88487244-.04019165c-8.92967645.11090414-17.20495577 3.2755279-22.66190392 10.62840265z" fill="#4f5253"/><path d="M81.8125 385.75l3.23632812-.0625c7.02285883-.03474513 12.42615402.22284291 17.91210938 5.03125L104.375 392.5l1.4609375 1.78125c2.40676312 3.55360998 2.27123315 6.75187927 2.2265625 10.90625l-.02734375 3.29296875L108 411l2.59521484-.06347656 9.67285157-.15625 4.16015625-.08203125c11.18329339-.27453572 20.38852927.6128739 28.88427734 8.55175781 7.59000708 7.28021087 11.63309235 14.68089973 11.94197559 25.34529686l.00622082 5.14502907.01159257 2.882568.00236922 9.51528966.01548767 6.84147644.0114367 18.55165434.00860543 15.49936879.00444319 38.66175325.02509822 33.52977976.02387674 34.47758301.01471454 19.33677232-.00241088 18.1871624.00862312 6.66340637-.01031113 9.11856652.02234632 2.64244115C165.29827769 676.9223 161.56203824 685.65161463 154 694c-5.55585425 4.63141927-11.5256626 8.23768293-18.90655518 8.26742554l-2.91361999.02584839-3.16127014-.00274659-3.3573761.02035523-10.98930359.02505493-7.64886475.02017212-16.03912353.01449585c-6.16270779-.00119992-12.32506451.01987506-18.48768354.05148733l-17.83606982.03529322-7.56385803.02666473-10.59725189.00178909-3.13673401.03405762C22.60138707 702.42709793 15.50487744 698.50487744 8 691c-6.62817931-6.99641149-8.60000271-14.75633666-8.52139282-24.15083313l-.02318514-2.97987622-.00473845-9.82363635-.03097534-7.06863404-.0228734-19.15929818-.00997496-11.98021865-.0036072-2.01266053-.00728476-4.04866325-.0052303-37.92135733-.05019644-34.63131167-.0477535-35.62353953-.02942908-19.97408039.00482178-18.7904911-.01724625-6.87858391C-.86465314 441.67870206-.4949749 431.28033343 9.25 420.0625c6.66716404-6.0867636 14.69406484-9.19775711 23.60546875-9.16015625l2.00495911.00428772L41.1875 410.9375l4.29492188.01367188L56 411l-.03735352-2.2722168-.02905273-2.98950195-.03735352-2.9597168c.17548331-4.6992364 1.49451039-8.06436402 4.72094727-11.5012207C67.20028312 385.30170116 73.19579663 385.7911544 81.8125 385.75zM14.5 430c-4.22317179 6.08922444-4.79249024 11.2300298-4.76742554 18.46221924l-.01373064 2.90168738-.00937116 9.63316369-.02035523 6.90412903-.02363157 18.76272297-.01634419 15.66323161-.0199893 34.8471196.00024216 2.11137101.00024776 2.11395809-.04652449 33.90097064-.04081245 34.8332375-.0263561 19.54640317-.00496674 18.38894462-.01472091 6.74206162.00926208 9.21862602-.03117311 2.68105054c.07801241 7.06904452 1.94795638 12.96849432 6.31471193 18.59379077L17.625 686.875l1.7890625 1.6171875c7.08495423 4.13110624 14.69188979 4.95133501 22.7421875 4.89599609l2.91137695.01593018L54.5 693.3984375l6.61132812.00869751 13.81835938-.01602173 17.65197754.01071739 13.64074707-.00038337 6.50634766.00743866 9.11499023-.02070237 2.67700195.0184021c9.1622653-.09219337 17.06924712-2.03141813 23.7878418-8.43783569 4.42592621-5.15165545 6.81049419-11.20590702 6.82283401-17.99376869l.01163984-2.41215575-.00262571-2.63231409.00900341-2.81033933.01168751-9.3452698.01504517-6.69192505.02401066-18.19907045.01150417-11.37152815.02587509-31.50530815.00066535-2.03624018.00066145-2.04103378.00133968-4.09434736.00067099-2.05143957.04468853-32.88065675.03734192-33.78563551.02481961-18.95800746.00986099-17.84227753.01345826-6.53761673-.003582-8.94842529.02441334-2.59175551c-.06107036-7.52191438-1.30459463-15.84835802-6.51690602-21.61463487l-1.5703125-1.8359375c-6.81589817-5.29098536-13.65211139-6.37970499-22.08178711-6.32250977l-3.14738464-.02610778-10.2278595-.0068512-7.15370178-.01878357c-4.98882322-.01038836-9.97736092-.00586498-14.96617127.0087738-6.37647554.01718398-12.75204964-.00631219-19.12842464-.0414896l-14.76537609-.01223468c-2.35021325.00081725-4.7004426-.00600267-7.05060959-.02077103-3.29284804-.0175216-6.58409359-.0028384-9.87687874.01980781l-2.90844726-.0354309C27.34162047 420.4539074 19.99220457 423.08634081 14.5 430z" fill="#4e5253"/><path d="M17 474h131v34H17v-34z" fill="#3cb4dd"/><path d="M888 220l50.7978735-.05181217 23.58469486-.02362728 20.54905897-.01864904 10.88717264-.01164157 12.13408089-.00779533 3.67272949-.01089478 3.3188324.00416565 2.90225124-.00279331C1018 220 1018 220 1019 221v33H888v-34z" fill="#ff682d"/><path d="M449.153306007385 130.876952171326l2.90225124.00279331 3.3188324-.00416565 3.67272949.01089478 3.84275818-.00044251 10.46229863.01257396 10.92258907.00802541 20.69699138.02134949 23.55705804.02169543 48.47118556.05032361v34h-131c0-33.94285632 0-33.94285632 3.15330601-34.12304783z" fill="#38df53"/><path d="M17 518h131v33c-1.67432909 1.67432909-3.7120751 1.12607043-6.01086426 1.12698364l-3.28895569.00854492-3.63963317-.00613403-3.80833436.00531006c-3.45651899.00457381-6.91300827.00278499-10.36952781-.00037909-3.60969946-.00252387-7.21939629-.00018598-10.82909584.00138617-6.06295226.00182162-12.12589236-.00058441-18.18884278-.00534058-7.01924695-.0054426-14.03846487-.00367994-21.05771112.00182641l-18.04836559.00256133c-3.59774836-.00156265-7.19548305-.00175687-10.79323054.00153649-4.00867953.0034129-8.01730864-.00131139-12.02598572-.00690079l-3.63963317.00613403-3.28895569-.00854492-2.87596894-.0011425C18 552 18 552 17 551v-33z" fill="#3ae055"/><use xlink:href="#B" fill="#39e054"/><use xlink:href="#B" y="-44" fill="#38e053"/><path d="M17 563h130v34H17v-34z" fill="#fdd817"/><path d="M661 220h130v34H661v-34z" fill="#fdd91c"/><path d="M446 220h130v34H446v-34z" fill="#3ee159"/><path d="M227 220h130v34H227v-34z" fill="#3ee059"/><path d="M17 220h130v34H17v-34z" fill="#3fe159"/><path d="M661 176h130v34H661v-34z" fill="#fdd91b"/><path d="M446 176h130v34H446v-34z" fill="#3ee058"/><path d="M227 176h130v34H227v-34z" fill="#3de058"/><path d="M228 131h130v34H228v-34z" fill="#3de057"/><path d="M17 176l50.40672207-.05181217 23.40309238-.02362728 20.39084584-.01864904 10.80333561-.01164157 12.04068183-.00779533 3.64439393-.01089478 3.29333496.00416565 2.87990474-.00279331C146 176 146 176 147 177v33H17v-34z" fill="#3ee058"/><path d="M228 87l50.40672207-.05181217 23.40309238-.02362728 20.39084584-.01864904 10.80333561-.01164157 12.04068183-.00779533 3.64439393-.01089478 3.29333496.00416565 2.87990474-.00279331C357 87 357 87 358 88v33H228V87z" fill="#3be055"/><path d="M17 607h130v33c-2.51788465 1.25894232-4.23640579 1.12584506-7.05519104 1.12698364l-3.24212646.00854492-3.57206727-.00613403-3.7496643.00531006c-3.39862199.00365439-6.79718334.00278762-10.19580198-.00037909-3.55096989-.00252644-7.10193714-.00018531-10.65290713.00138617-5.96281908.00182062-11.92562579-.00058205-17.88844299-.00534058-6.90282036-.00544491-13.80561119-.00367787-20.70843083.00182641l-17.75543487.00256133c-3.53848872-.00156241-7.07696355-.00175747-10.61545139.00153649-3.94150894.0034127-7.88298453-.00131114-11.82449151-.00690079l-3.57820129.00613403-3.23358154-.00854492-2.82734013-.0011425C18 641 18 641 17 640v-33zm871-343l50.7978735-.05181217 23.58469486-.02362728 20.54905897-.01864904 10.88717264-.01164157 12.13408089-.00779533 3.67272949-.01089478 3.3188324.00416565 2.90225124-.00279331C1018 264 1018 264 1019 265c1.22497626 21.10728324 1.22497626 21.10728324-4.359375 27.57421875-6.05876817 5.44976828-11.80105895 5.72382652-19.53637695 5.71630859l-3.00756836.02035523-9.83496094.02505493-6.84892273.02017212-14.35688782.01449585c-6.12329843-.00020313-12.24613244.02709256-18.36932087.06154442l-14.14751529.02523613-6.77087784.02666473-9.48425865.00178909-2.80760193.03405762c-6.58925957-.06350561-12.13820014-1.34945769-17.03748036-6.00261879-3.53429493-4.05666473-4.56841869-7.13898252-4.53650951-12.40399742l.00976563-2.84179687L887.9375 274.3125l.01367188-2.99414062L888 264z" fill="#fe6b31"/><path d="M661 264h130c0 22 0 22-5 30-4.20492954 3.17933697-8.10813577 4.11952969-13.30622864 4.14044189l-2.58674621.01730347-2.81332398.00338745-2.98243713.01504517-9.76829529.02694702-6.7931366.01727295-14.24617004.01983643-18.23854542.05797195-14.03416538.02536392-6.72311783.02418518-9.41335106.00868988-2.79492187.02792359c-6.9461383-.04487269-11.72038451-1.149083-17.11206055-5.8218689C657.48603666 283.5407858 661 278.80352338 661 264z" fill="#fed819"/><path d="M446 264h130c0 22 0 22-5 30-5.59667006 4.37453974-12.4256825 4.57438898-19.25805664 4.50170898l-2.97978211.01637269c-3.2244196.01242544-6.44793554-.00396177-9.6723175-.02198792l-6.76451111.00440979c-4.71476598.00138119-9.42922672-.01112847-14.14393616-.03395081l-18.09320926-.01290988c-4.65239411.00696747-9.30467202-.00084412-13.95705128-.01325703l-6.67039871-.0009346c-3.11095026.00292307-6.22121206-.0136471-9.33207512-.03539849l-2.76022339.01364136C461.55785793 298.35047926 457.1831827 297.735325 452 295c-6-8-6-8-6-31z" fill="#3be056"/><path d="M1107 264h130c0 22 0 22-5 30-4.20492954 3.17933697-8.10813577 4.11952969-13.30622864 4.14044189l-2.58674621.01730347-2.81332398.00338745-2.98243713.01504517-9.76829529.02694702-6.7931366.01727295-14.24617004.01983643-18.23854542.05797195-14.03416538.02536392-6.72311783.02418518-9.41335106.00868988-2.79492187.02792359c-6.9461383-.04487269-11.72038451-1.149083-17.11206055-5.8218689C1103.48603666 283.5407858 1107 278.80352338 1107 264z" fill="#fa2636"/><path d="M227 264h130c0 23 0 23-4 29-4.76978768 3.67671133-8.36675617 5.11654708-14.30622864 5.14044189l-2.58674621.01730347-2.81332398.00338745-2.98243713.01504517-9.76829529.02694702-6.7931366.01727295-14.24617004.01983643-18.23854542.05797195-14.03416538.02536392-6.72311783.02418518-9.41335106.00868988-2.79492187.02792359c-6.28863418-.04062516-11.35898001-.80696763-16.26049805-5.1031189L230.625 291.5l-1.4609375-1.78125C224.09090746 282.22818551 227 272.75686838 227 264z" fill="#3be056"/><path d="M17 264h130c0 23.43243243 0 23.43243243-5.3125 29.75-5.63368972 4.71657744-11.60458265 4.54351666-18.60498047 4.5246582l-2.97845459.01548767-9.72125244.01063538-6.77737427.01298523-14.19772339.00190735c-6.05481594-.00579224-12.10932576.01113337-18.16409111.03434467l-13.99567222.01249027-6.6955185.01581192c-3.12558818.01238217-6.25058427.00556159-9.37616348-.00600624l-2.77450561.02316284c-6.04132657-.04924149-12.30632988-.51740317-16.96333123-4.84739208C13.23265475 283.94288819 17 281.15376379 17 264z" fill="#3ce056"/><path d="M41.712158203125 41.70947265625l2.94845581-.02035522 9.64016724-.02505494 6.71440124-.02017212 14.07441712-.01449584 18.00611591-.06154442 13.86957645-.02523613 6.63690567-.02666474 9.29746056-.00178909 2.75093079-.03405762c6.51775479.06405486 11.98105655 1.40429801 16.87587452 5.93181801 7.83491121 8.86351955 5.47353649 15.8829381 5.47353649 28.58807945h-131c0-22.31753554 0-22.31753554 4.6484375-28.0234375l1.7265625-1.3515625 1.7109375-1.3984375c5.45152354-3.49342529 10.33344966-3.52333091 16.6262207-3.51708984z" fill="#3ee158"/><path d="M17 651h130c0 23.78625954 0 23.78625954-4.53515625 28.64453125-3.86798578 2.95787148-5.92445967 4.476341-10.75834656 4.50263977l-2.73139953.02168274-3.00512696.00814819-3.15888977.01991272-10.38529968.04136658-3.57862282.01235008-18.75609398.04453469-19.37541485.0851717-14.89372921.03810977-7.14178085.035038-10.00313759.01648521-2.97445678.03881836C29.59403882 684.46245574 25.91103972 683.73682607 21 680c-4-6-4-6-4-29z" fill="#f92535"/><path d="M36.268264770508 428.859558105469l2.56124878-.01730347 2.7849884-.00338745 2.95288086-.01504516 9.67089844-.02694703 6.72587585-.01727294 14.1049347-.01983643 18.05694294-.05797195 13.89519596-.02536393 6.65613174-.02418518 9.31995201-.00868988 2.76658631-.02792358c6.23849619.04069848 11.25750349.83473927 16.16188049 5.03280639l1.38671875 1.7265625 1.42578125 1.7109375c5.46016082 8.28321611 3.26171875 13.66393737 3.26171875 24.9140625h-131c0-21.75796178 0-21.75796178 4.83984375-26.98828125 4.69388939-4.36173334 7.99364348-6.1260124 14.42842102-6.15216064z" fill="#8d5ade"/><path d="M518 475h1c-.69005187 7.41891589-2.01832215 14.61249719-3.50390625 21.91015625l-.73558044 3.66075134L512.4375 512.0625l-1.57617188 7.82617188L507 539l2.98168945-.82617188 10.95263672-3.01904296 4.74023438-1.30957032 6.8137207-1.87646484 2.14045715-.59655762C537.51599307 530.58448914 539.99141591 530 543 530c-1.38665091 4.44266795-3.11946339 8.55236523-5.125 12.75L530 560c-4.29262101 9.70759637-8.75884206 19.32559341-13.34375 28.8984375L500 625h-2c.78263521-6.9047502 2.50538052-13.56081722 4.16015625-20.30078125l1.41738796-5.83242321 1.9809885-8.11746693 3.47966004-14.27037048 1.85293579-7.58889771.83958435-3.44987487.7445221-3.0448761C513.07133491 560.08307556 513.07133491 560.08307556 513 558l-2.78222656.71850586-10.24267578 2.64453125-4.42871094 1.14355469-6.37451172 1.64575195-3.87207031.99975586L478 567c.65370973-4.29450274 2.17767113-7.99877882 3.96484375-11.921875l.9243927-2.06394958 1.99711609-4.43736268 5.40661621-12.04946899 1.14859009-2.56196594L504.75 503.8125l3.42106628-7.80470276 2.04006958-4.65658569 1.84635926-4.20628357 2.03051758-4.64361572 1.08483886-2.47518921.98687744-2.26142884C517 476 517 476 518 475z" fill="#4b4b4c"/><path d="M888 220l50.7978735-.05181217 23.58469486-.02362728 20.54905897-.01864904 10.88717264-.01164157 12.13408089-.00779533 3.67272949-.01089478 3.3188324.00416565 2.90225124-.00279331C1018 220 1018 220 1019 221v33H888v-34zm2 2v30h127v-30H890z" fill="#fe895a"/><path d="M449.153306007385 130.876952171326l2.90225124.00279331 3.3188324-.00416565 3.67272949.01089478 3.84275818-.00044251 10.46229863.01257396 10.92258907.00802541 20.69699138.02134949 23.55705804.02169543 48.47118556.05032361v34h-131c0-33.94285632 0-33.94285632 3.15330601-34.12304783zm-1.15330601 2.12304783v30h127v-30h-127z" fill="#5ce572"/><path d="M23.010864257813 86.873016357422l3.28895569-.00854492 3.63963318.00613403 3.80833435-.00531006 10.36952781.00037909 10.82909585-.00138617 18.18884277.00534058 21.05771112-.00182641 18.0483656-.00256133 10.79323053-.00153649 12.02598572.00690079 3.63963318-.00613403 3.28895568.00854492 2.87596894.0011425c2.13489532.12584114 2.13489532.12584114 3.13489532 1.12584114l.09765625 7.31640625-.00428772 2.21531678-.03086853 7.03077697-.01367187 4.75585938-.04882813 11.68164062h-2v-32h-127v32h-2l-.05493164-14.04418945-.02050781-4.78125-.0222168-6.8581543-.01564026-2.17173767.11329651-5.14466858c1.67432909-1.67432909 3.7120751-1.12607043 6.01086426-1.12698364z" fill="#51e46a"/><path d="M146 131l2 1v33H17v-33h1v31h128v-32z" fill="#62e778"/><path d="M584 55h1l.10213066 88.3088294.00773262 10.42774287.00158976 2.09692864.04285255 33.60528417.0338714 34.48694986.02328312 19.36870056.01475525 18.22867584.01219559 6.69135475.00209808 9.13613511.01765359 2.67366701C585.2338649 285.04041714 584.85879992 289.30822592 583 294l-3 1 .64104939-1.62331104c3.44315694-10.28400884 2.79997911-20.93820172 2.79132366-31.64695263l.03088379-6.7732544.04285407-18.31357741.06000542-19.16641831.08744812-32.14567566.08398438-33.09570313.0066631-2.06403645.03351651-10.25212602L584 55z" fill="#606465"/><path d="M792 298v3c-7.14806126 5.53398291-15.75558529 6.44163845-24.47680664 6.34057617l-3.04827881.00132752-9.8850708-.04893494-6.88926697-.01286316-18.06544494-.07411194-18.46130372-.05950927L675 307v-1l3.81175232-.01777649 35.61938381-.21793842 18.31080723-.11072064 17.68159676-.11675071 6.73490524-.03442765 9.45654487-.07001304 2.7921753.00434875C778.08047553 305.31181338 785.03452035 303.17945922 792 298z" fill="#6e7171"/><path d="M518 475h1c-.64036937 6.62613779-1.70971164 13.04712709-3.0625 19.5625l-.56445312 2.76757812L514 504h-1v-12h-2c4.7-14.7 4.7-14.7 7-17z" fill="#69696b"/><path d="M503 602c.5534764 2.07553648 1 3.84365964 1 6l4-3c-.63046603 2.78162695-1.47315233 5.28492526-2.62890625 7.890625l-.94726563 2.1484375L503.4375 617.25l-.99804688 2.2578125L500 625h-2c.65759749-5.26770198 1.73264124-10.30133173 3.0625-15.4375l.56445312-2.21679688L503 602z" fill="#6c6c6e"/><path d="M501 609h1l-.0625 3.375c-.20130718 3.45715921-.20130718 3.45715921 1.0625 5.625l-3 7h-2c.69165788-5.41798672 1.75799248-10.6822785 3-16z" fill="#8b8b8c"/><path d="M518 475h1l-.375 4.25-.2109375 2.390625C517.98492887 484.085877 517.21399362 485.84836903 516 488c-1.1875-2.0625-1.1875-2.0625-2-5 2.15384615-6.15384615 2.15384615-6.15384615 4-8z" fill="#878788"/><path d="M238 432c-.36910422 2.67600563-.694566 3.74722703-2.8125 5.5L233 439l-4 4c.27517768-4.67802059 2.33193886-6.74638753 5.52734375-9.86328125C236 432 236 432 238 432z" fill="#f04c52"/><path d="M486 546c1.36328912 3.68088063.58375966 5.49905759-1 9l-2 6-2-1c1.54269924-4.72065967 3.07794619-9.41664092 5-14z" fill="#777778"/><path d="M716 613c2 2 2 2 2.3125 4.3125-.37637375 3.23681424-1.37993709 5.08597301-3.3125 7.6875h-2l.65625-1.86328125L714.5 620.6875l.84375-2.42578125c.79558107-2.34941297.79558107-2.34941297.65625-5.26171875z" fill="#6de881"/><path d="M480 560l1 4 8-1c-3.68734758 2.45823172-6.69699971 3.01242616-11 4 .875-4.75.875-4.75 2-7z" fill="#717173"/><path d="M543 530l-2 4v-2l-3.75 1.0625c-3.153292.89343273-5.11774164.94631294-8.25-.0625l5.3125-1.5 2.98828125-.84375C540 530 540 530 543 530z" fill="#717172"/><path d="M506 602l2 3-4 4-1-3c1.4375-2.1875 1.4375-2.1875 3-4z" fill="#414143"/><path d="M221 289c2.32472205 2.85306797 3.7508258 5.54074837 5 9-2.5-1.125-2.5-1.125-5-3-.3125-3.1875-.3125-3.1875 0-6z" fill="#7e8282"/><defs ><path id="B" d="M23.010864257813 130.873016357422l3.28895569-.00854492 3.63963318.00613403 3.80833435-.00531006 10.36952781.00037909 10.82909585-.00138617 18.18884277.00534058 21.05771112-.00182641 18.0483656-.00256133 10.79323053-.00153649 12.02598572.00690079 3.63963318-.00613403 3.28895568.00854492 2.87596894.0011425c2.13489532.12584114 2.13489532.12584114 3.13489532 1.12584114v33h-131c0-34.12459578 0-34.12459578 6.01086426-34.12698364z"/></defs></svg>